<svg height="24" viewBox="0 0 20 24" width="20" xmlns="http://www.w3.org/2000/svg"><path d="m18.304265 22.7989154c-.671259.957057-1.2208706 1.6195222-1.6444379 1.9873956-.6566027.60384-1.3601056.9130881-2.1134399.9306757-.5408178 0-1.1930236-.1538913-1.9522204-.4660707-.7616884-.3107137-1.4616738-.464605-2.1017148-.464605-.67125898 0-1.3911769.1538913-2.1612194.464605-.77121501.3121794-1.39249597.4748644-1.86750697.4909864-.72240949.0307782-1.44247398-.2872637-2.1612194-.9555914-.45874249-.4001172-1.03253701-1.0860325-1.71991793-2.0577459-.73750549-1.0376667-1.34383702-2.2409497-1.81884801-3.6127803-.5087205-1.4817528-.76374029-2.9166056-.76374029-4.3057306 0-1.5912355.34383702-2.9636523 1.03253701-4.1137329.54125751-.92378722 1.261322-1.65249893 2.16253847-2.18745423s1.87498168-.80756266 2.92364063-.82500367c.57379452 0 1.32624945.17748791 2.261322.52630808.93243441.34999267 1.53114465.52748058 1.79363919.52748058.196248 0 .8613513-.20753334 1.9888612-.62128096 1.0662465-.38370219 1.9661439-.54257658 2.7033563-.47999414 1.997655.16121941 3.4984611.94870292 4.4965557 2.36743364-1.7866041 1.0825151-2.6703796 2.5987103-2.652792 4.5437491.0161219 1.5150227.5657336 2.7757585 1.6459036 3.7767844.4895207.464605 1.0362011.8236846 1.6444379 1.0787044-.1319068.3825297-.2711417.7489374-.4191705 1.1006889-.3590795.8295471-.7841125 1.5931408-1.2765645 2.295178zm-3.3049978-20.32390441c0 1.18746886-.4338268 2.29620402-1.298549 3.32243881-1.0435293 1.21999121-2.3057307 1.9249597-3.6744834 1.81371831-.017441-.14245933-.02755387-.29239338-.02755387-.44994871 0-1.13996775.49626267-2.35995896 1.37754657-3.35746738.4399824-.50505643.9995603-.92500367 1.6781474-1.26000294.6771215-.33000146 1.3176022-.51250183 1.9199766-.54374908.0175875.15874249.0249157.31749963.0249157.47499634z" fill="#634a69" transform="translate(0 -2)"/></svg>