<svg height="40" viewBox="0 0 40 40" width="40" xmlns="http://www.w3.org/2000/svg"><path d="m20 16c-8.8 0-16 7.2-16 16 0 7.1 4.6 13.1 10.9 15.2.8.1 1.1-.3 1.1-.8 0-.4 0-1.4 0-2.7-4.5 1-5.4-2.1-5.4-2.1-.7-1.8-1.8-2.3-1.8-2.3-1.5-1 .1-1 .1-1 1.6.1 2.5 1.6 2.5 1.6 1.4 2.4 3.7 1.7 4.7 1.3.1-1 .6-1.7 1-2.1-3.6-.4-7.3-1.8-7.3-7.9 0-1.7.6-3.2 1.6-4.3-.2-.4-.7-2 .2-4.2 0 0 1.3-.4 4.4 1.6 1.3-.4 2.6-.5 4-.5s2.7.2 4 .5c3.1-2.1 4.4-1.7 4.4-1.7.9 2.2.3 3.8.2 4.2 1 1.1 1.6 2.5 1.6 4.3 0 6.1-3.7 7.5-7.3 7.9.6.5 1.1 1.5 1.1 3v4.4c0 .4.3.9 1.1.8 6.3-2.1 10.9-8.1 10.9-15.2 0-8.8-7.2-16-16-16z" fill="#383f47" fill-rule="evenodd" transform="translate(0 -12)"/></svg>