<svg height="40" viewBox="0 0 40 40" width="40" xmlns="http://www.w3.org/2000/svg"><path d="m28 3.03333333c-1.05.46666667-2.1.81666667-3.2666667.93333334 1.1666667-.7 2.1-1.86666667 2.5666667-3.15-1.1666667.7-2.3333333 1.16666666-3.6166667 1.4-1.05-1.16666667-2.5666666-1.86666667-4.2-1.86666667-3.15 0-5.7166666 2.56666667-5.7166666 5.71666667 0 .46666666 0 .93333333.1166666 1.28333333-4.89999997-.23333333-9.09999997-2.56666667-11.89999997-6.06666667-.58333333.93333334-.81666666 1.86666667-.81666666 2.91666667 0 1.98333333 1.05 3.73333333 2.56666666 4.78333333-.93333333 0-1.86666666-.23333333-2.56666666-.7v.11666667c0 2.8 1.98333333 5.1333333 4.55 5.6-.46666667.1166667-.93333334.2333333-1.51666667.2333333-.35 0-.7 0-1.05-.1166666.7 2.3333333 2.8 3.9666666 5.36666667 3.9666666-1.98333334 1.5166667-4.43333334 2.45-7.11666667 2.45-.46666667 0-.93333333 0-1.4-.1166666 2.56666667 1.6333333 5.6 2.5666666 8.75 2.5666666 10.6166667 0 16.3333333-8.75 16.3333333-16.3333333 0-.23333333 0-.46666667 0-.7 1.1666667-.81666667 2.1-1.86666667 2.9166667-2.91666667z" fill="#fff" transform="translate(6 8)"/></svg>